<?xml version="1.0" standalone="no"?>
<!DOCTYPE svg PUBLIC "-//W3C//DTD SVG 20010904//EN"
 "http://www.w3.org/TR/2001/REC-SVG-20010904/DTD/svg10.dtd">
<svg version="1.0" xmlns="http://www.w3.org/2000/svg"
 width="500.000000pt" height="500.000000pt" viewBox="0 0 500.000000 500.000000"
 preserveAspectRatio="xMidYMid meet">
<metadata>
Created by potrace 1.11, written by Peter Selinger 2001-2013
</metadata>
<g transform="translate(0.000000,500.000000) scale(0.100000,-0.100000)"
fill="#000000" stroke="none">
<path d="M3826 4500 c-211 -44 -370 -143 -531 -333 l-40 -47 -61 15 c-57 13
-144 29 -227 40 -130 18 -475 24 -627 12 -203 -16 -288 -29 -490 -72 -48 -10
-208 -60 -272 -85 -603 -232 -1155 -874 -1407 -1636 -55 -165 -83 -276 -106
-419 -3 -16 -7 -41 -10 -55 -9 -53 -18 -179 -19 -282 -2 -91 0 -108 14 -109 8
0 22 -2 30 -3 15 -3 94 -11 210 -22 95 -8 101 -10 147 -36 l42 -24 -28 -12
c-47 -21 -107 -79 -129 -124 -28 -59 -25 -175 6 -235 41 -79 157 -157 270
-179 20 -5 100 -8 177 -8 155 0 254 21 348 71 91 50 192 173 228 279 7 21 15
41 17 44 1 2 69 5 150 6 296 4 602 27 792 59 14 2 42 6 64 10 76 11 242 48
321 70 l80 23 26 -31 27 -32 -39 -56 c-21 -31 -44 -63 -51 -70 -7 -8 -30 -35
-51 -61 -38 -48 -100 -110 -216 -221 -59 -56 -97 -113 -105 -159 -3 -13 -5
-24 -7 -25 -6 -9 -4 -90 3 -99 5 -7 8 -16 7 -20 -8 -34 72 -134 131 -164 40
-21 117 -36 170 -34 31 1 70 5 195 19 17 2 66 11 110 20 44 9 91 18 105 21
192 38 516 136 628 190 181 87 320 261 400 499 54 159 60 200 68 405 5 134 -1
245 -19 325 -3 11 -8 38 -11 61 -4 23 -18 75 -30 115 l-23 75 74 64 c84 73
287 280 348 354 22 27 50 60 63 75 53 61 187 263 237 356 65 122 118 263 144
381 21 101 20 90 24 209 13 399 -201 677 -628 816 -170 56 -374 71 -529 39z"/>
</g>
</svg>
